<svg xmlns="http://www.w3.org/2000/svg" xmlns:xlink="http://www.w3.org/1999/xlink" width="500" zoomAndPan="magnify" viewBox="0 0 375 374.999991" height="500" preserveAspectRatio="xMidYMid meet" version="1.0"><defs><g/><clipPath id="650ef2504a"><path d="M 123.273438 25 L 251.523438 25 L 251.523438 159 L 123.273438 159 Z M 123.273438 25 " clip-rule="nonzero"/></clipPath><clipPath id="c53222cc4c"><path d="M 108.125 27.917969 L 141 27.917969 L 141 51 L 108.125 51 Z M 108.125 27.917969 " clip-rule="nonzero"/></clipPath><clipPath id="b6a0112843"><path d="M 108.300781 50 L 133 50 L 133 82.644531 L 108.300781 82.644531 Z M 108.300781 50 " clip-rule="nonzero"/></clipPath></defs><g clip-path="url(#650ef2504a)"><path fill="#ffffff" d="M 171.273438 27.863281 C 173.351562 27.339844 175.453125 26.917969 177.570312 26.601562 C 179.691406 26.285156 181.820312 26.070312 183.960938 25.957031 C 186.101562 25.847656 188.246094 25.84375 190.386719 25.941406 C 192.527344 26.039062 194.65625 26.242188 196.78125 26.546875 C 198.902344 26.851562 201.003906 27.261719 203.085938 27.769531 C 205.167969 28.28125 207.21875 28.890625 209.242188 29.601562 C 211.265625 30.3125 213.246094 31.121094 215.191406 32.023438 C 217.136719 32.929688 219.03125 33.925781 220.878906 35.011719 C 222.726562 36.101562 224.519531 37.277344 226.253906 38.539062 C 227.984375 39.804688 229.652344 41.148438 231.257812 42.574219 C 232.859375 44 234.390625 45.5 235.847656 47.074219 C 237.304688 48.648438 238.683594 50.289062 239.980469 52 C 241.28125 53.707031 242.492188 55.476562 243.621094 57.304688 C 244.746094 59.132812 245.78125 61.007812 246.726562 62.9375 C 247.671875 64.863281 248.519531 66.832031 249.273438 68.84375 C 250.027344 70.855469 250.679688 72.898438 251.234375 74.972656 C 251.339844 75.355469 251.4375 75.746094 251.535156 76.144531 L 250.527344 76.496094 C 250.421875 76.078125 250.316406 75.664062 250.203125 75.246094 C 249.929688 74.21875 249.628906 73.199219 249.304688 72.1875 C 248.980469 71.175781 248.632812 70.171875 248.257812 69.175781 C 247.886719 68.179688 247.488281 67.191406 247.066406 66.21875 C 246.644531 65.242188 246.199219 64.277344 245.730469 63.320312 C 245.261719 62.367188 244.769531 61.425781 244.253906 60.496094 C 243.738281 59.5625 243.203125 58.648438 242.640625 57.742188 C 242.082031 56.839844 241.5 55.949219 240.898438 55.074219 C 240.292969 54.199219 239.667969 53.339844 239.023438 52.496094 C 238.378906 51.652344 237.714844 50.820312 237.027344 50.011719 C 236.339844 49.199219 235.636719 48.402344 234.910156 47.625 C 234.1875 46.847656 233.445312 46.089844 232.683594 45.347656 C 231.921875 44.609375 231.140625 43.886719 230.34375 43.183594 C 229.546875 42.480469 228.734375 41.796875 227.902344 41.136719 C 227.074219 40.472656 226.226562 39.832031 225.367188 39.207031 C 224.503906 38.585938 223.628906 37.988281 222.738281 37.410156 C 221.84375 36.832031 220.941406 36.273438 220.023438 35.742188 C 219.105469 35.207031 218.171875 34.695312 217.230469 34.207031 C 216.289062 33.71875 215.332031 33.253906 214.367188 32.8125 C 213.402344 32.371094 212.425781 31.957031 211.4375 31.5625 C 210.453125 31.167969 209.457031 30.800781 208.453125 30.453125 C 207.449219 30.109375 206.4375 29.789062 205.417969 29.496094 C 204.398438 29.199219 203.371094 28.929688 202.335938 28.683594 C 201.304688 28.441406 200.265625 28.222656 199.222656 28.027344 C 198.179688 27.835938 197.128906 27.667969 196.078125 27.523438 C 195.027344 27.382812 193.972656 27.265625 192.914062 27.175781 C 191.855469 27.085938 190.796875 27.019531 189.734375 26.980469 C 188.675781 26.941406 187.613281 26.929688 186.550781 26.945312 C 185.492188 26.957031 184.429688 26.996094 183.371094 27.0625 C 182.3125 27.128906 181.253906 27.21875 180.199219 27.335938 C 179.144531 27.453125 178.089844 27.597656 177.042969 27.765625 C 175.996094 27.9375 174.953125 28.128906 173.914062 28.351562 C 172.875 28.570312 171.84375 28.816406 170.816406 29.085938 C 170.976562 28.683594 171.132812 28.277344 171.273438 27.863281 Z M 124.28125 107.964844 C 124.367188 108.308594 124.453125 108.644531 124.546875 108.988281 C 124.820312 110.019531 125.121094 111.039062 125.449219 112.054688 C 125.773438 113.070312 126.125 114.078125 126.496094 115.074219 C 126.871094 116.074219 127.273438 117.0625 127.695312 118.039062 C 128.117188 119.019531 128.566406 119.988281 129.035156 120.941406 C 129.507812 121.898438 130 122.84375 130.515625 123.777344 C 131.035156 124.707031 131.574219 125.625 132.136719 126.53125 C 132.699219 127.4375 133.28125 128.328125 133.886719 129.207031 C 134.492188 130.082031 135.121094 130.945312 135.765625 131.789062 C 136.414062 132.636719 137.082031 133.464844 137.769531 134.28125 C 138.460938 135.09375 139.167969 135.890625 139.894531 136.667969 C 140.621094 137.445312 141.367188 138.207031 142.132812 138.949219 C 142.898438 139.6875 143.679688 140.410156 144.480469 141.113281 C 145.28125 141.820312 146.097656 142.5 146.929688 143.164062 C 147.765625 143.828125 148.613281 144.46875 149.476562 145.089844 C 150.34375 145.710938 151.222656 146.3125 152.117188 146.890625 C 153.011719 147.46875 153.917969 148.023438 154.839844 148.558594 C 155.761719 149.089844 156.695312 149.601562 157.644531 150.089844 C 158.589844 150.578125 159.546875 151.039062 160.515625 151.480469 C 161.484375 151.921875 162.464844 152.335938 163.453125 152.730469 C 164.445312 153.121094 165.441406 153.488281 166.449219 153.832031 C 167.457031 154.175781 168.472656 154.492188 169.496094 154.785156 C 170.519531 155.082031 171.550781 155.347656 172.585938 155.589844 C 173.621094 155.832031 174.664062 156.050781 175.710938 156.242188 C 176.757812 156.433594 177.808594 156.597656 178.863281 156.738281 C 179.917969 156.875 180.976562 156.992188 182.039062 157.078125 C 183.097656 157.164062 184.160156 157.226562 185.222656 157.261719 C 186.289062 157.296875 187.351562 157.308594 188.417969 157.289062 C 189.480469 157.273438 190.542969 157.230469 191.605469 157.160156 C 192.667969 157.089844 193.726562 156.996094 194.785156 156.875 C 195.839844 156.753906 196.894531 156.605469 197.945312 156.433594 C 198.996094 156.257812 200.039062 156.058594 201.082031 155.835938 C 202.121094 155.609375 203.15625 155.359375 204.183594 155.085938 C 204.019531 155.488281 203.859375 155.898438 203.707031 156.308594 C 202.667969 156.574219 201.621094 156.816406 200.570312 157.03125 C 199.519531 157.246094 198.460938 157.433594 197.402344 157.597656 C 196.339844 157.757812 195.273438 157.894531 194.207031 158.007812 C 193.140625 158.117188 192.070312 158.203125 190.996094 158.261719 C 189.925781 158.320312 188.851562 158.351562 187.78125 158.359375 C 186.707031 158.367188 185.632812 158.347656 184.558594 158.300781 C 183.488281 158.253906 182.417969 158.183594 181.347656 158.082031 C 180.277344 157.984375 179.210938 157.859375 178.148438 157.710938 C 177.085938 157.558594 176.027344 157.382812 174.972656 157.183594 C 173.917969 156.980469 172.871094 156.753906 171.828125 156.5 C 170.785156 156.246094 169.746094 155.96875 168.71875 155.664062 C 167.6875 155.359375 166.664062 155.03125 165.652344 154.679688 C 164.636719 154.324219 163.632812 153.945312 162.636719 153.542969 C 161.640625 153.140625 160.65625 152.714844 159.683594 152.265625 C 158.707031 151.8125 157.742188 151.339844 156.792969 150.84375 C 155.839844 150.34375 154.902344 149.824219 153.976562 149.28125 C 153.046875 148.738281 152.136719 148.171875 151.238281 147.582031 C 150.335938 146.996094 149.453125 146.386719 148.585938 145.753906 C 147.714844 145.121094 146.863281 144.472656 146.023438 143.796875 C 145.1875 143.125 144.367188 142.433594 143.5625 141.71875 C 142.757812 141.007812 141.972656 140.273438 141.203125 139.523438 C 140.433594 138.773438 139.683594 138.003906 138.953125 137.214844 C 138.222656 136.425781 137.511719 135.621094 136.820312 134.800781 C 136.128906 133.976562 135.457031 133.136719 134.804688 132.28125 C 134.15625 131.425781 133.523438 130.554688 132.917969 129.671875 C 132.308594 128.785156 131.722656 127.882812 131.15625 126.96875 C 130.589844 126.054688 130.046875 125.125 129.527344 124.183594 C 129.007812 123.242188 128.511719 122.289062 128.039062 121.324219 C 127.566406 120.359375 127.113281 119.382812 126.6875 118.394531 C 126.261719 117.410156 125.859375 116.410156 125.484375 115.40625 C 125.105469 114.398438 124.753906 113.382812 124.425781 112.359375 C 124.097656 111.332031 123.792969 110.300781 123.515625 109.261719 C 123.433594 108.949219 123.351562 108.636719 123.273438 108.320312 Z M 124.28125 107.964844 " fill-opacity="1" fill-rule="evenodd"/></g><g clip-path="url(#c53222cc4c)"><path fill="#ffffff" d="M 111.820312 48.796875 C 112.144531 48.621094 112.492188 48.488281 112.84375 48.355469 C 113.1875 48.226562 113.546875 48.132812 113.902344 48.054688 C 114.257812 48.003906 114.617188 47.953125 114.960938 47.972656 C 115.140625 47.96875 115.300781 48.007812 115.476562 48.011719 C 115.644531 48.046875 115.816406 48.066406 115.976562 48.117188 C 116.292969 48.21875 116.613281 48.324219 116.898438 48.476562 C 117.191406 48.621094 117.457031 48.796875 117.710938 48.949219 C 117.941406 49.136719 118.179688 49.28125 118.363281 49.449219 C 118.554688 49.613281 118.742188 49.742188 118.871094 49.871094 C 119.144531 50.113281 119.316406 50.257812 119.316406 50.257812 C 119.316406 50.257812 119.390625 50.191406 119.578125 49.265625 C 119.761719 48.339844 120.074219 47.039062 120.550781 45.523438 C 120.789062 44.769531 121.085938 43.964844 121.421875 43.132812 C 121.75 42.296875 122.183594 41.453125 122.617188 40.589844 C 123.078125 39.734375 123.613281 38.890625 124.183594 38.0625 C 124.761719 37.234375 125.40625 36.4375 126.117188 35.707031 C 126.46875 35.328125 126.820312 34.960938 127.203125 34.625 C 127.570312 34.273438 127.964844 33.953125 128.351562 33.632812 C 129.140625 33.003906 129.945312 32.421875 130.773438 31.914062 C 131.609375 31.429688 132.421875 30.960938 133.242188 30.582031 C 133.636719 30.371094 134.046875 30.214844 134.4375 30.046875 C 134.832031 29.882812 135.203125 29.699219 135.578125 29.574219 C 136.320312 29.3125 137.003906 29.035156 137.632812 28.851562 C 138.25 28.660156 138.792969 28.460938 139.25 28.351562 C 140.160156 28.097656 140.683594 27.929688 140.683594 27.929688 C 140.683594 27.929688 140.140625 27.914062 139.183594 27.925781 C 138.703125 27.921875 138.128906 27.976562 137.460938 28.046875 C 136.792969 28.089844 136.042969 28.226562 135.230469 28.386719 C 134.417969 28.554688 133.539062 28.761719 132.636719 29.089844 C 131.722656 29.390625 130.78125 29.777344 129.847656 30.261719 C 128.914062 30.757812 127.957031 31.300781 127.074219 31.976562 C 126.632812 32.320312 126.175781 32.652344 125.769531 33.046875 C 125.339844 33.417969 124.9375 33.816406 124.546875 34.230469 C 123.773438 35.0625 123.082031 35.96875 122.46875 36.898438 C 121.839844 37.816406 121.359375 38.808594 120.917969 39.761719 C 120.488281 40.726562 120.152344 41.6875 119.90625 42.613281 C 119.636719 43.535156 119.464844 44.425781 119.347656 45.25 C 119.097656 46.890625 119.097656 48.277344 119.152344 49.234375 C 119.175781 49.667969 119.210938 49.910156 119.242188 50.058594 C 119.207031 49.964844 119.160156 49.847656 119.097656 49.703125 C 118.949219 49.351562 118.6875 48.871094 118.273438 48.347656 C 117.84375 47.835938 117.226562 47.277344 116.398438 46.925781 C 115.988281 46.757812 115.53125 46.617188 115.054688 46.582031 C 114.582031 46.519531 114.101562 46.578125 113.632812 46.648438 C 112.703125 46.832031 111.863281 47.230469 111.179688 47.707031 C 110.824219 47.925781 110.523438 48.199219 110.238281 48.445312 C 109.960938 48.691406 109.714844 48.949219 109.5 49.199219 C 108.636719 50.175781 108.300781 50.992188 108.300781 50.992188 C 108.300781 50.992188 109.011719 50.488281 110.039062 49.816406 C 110.558594 49.492188 111.160156 49.121094 111.820312 48.796875 " fill-opacity="1" fill-rule="nonzero"/></g><g clip-path="url(#b6a0112843)"><path fill="#ffffff" d="M 127.816406 73.003906 C 127.304688 72.675781 125.570312 72.351562 125.261719 72.257812 L 124.421875 72.023438 C 123.902344 71.867188 123.359375 71.757812 122.855469 71.578125 C 122.550781 71.445312 122.246094 71.3125 121.941406 71.183594 C 121.515625 71.003906 121.097656 70.800781 120.703125 70.566406 C 120.476562 70.433594 120.25 70.296875 120.019531 70.167969 C 119.757812 69.988281 119.515625 69.785156 119.273438 69.585938 C 118.953125 69.320312 118.652344 69.035156 118.363281 68.734375 C 118.363281 68.730469 118.359375 68.726562 118.355469 68.71875 C 118.015625 68.363281 117.707031 67.972656 117.421875 67.566406 L 117.34375 67.449219 L 117.125 67.136719 L 116.953125 66.789062 L 116.605469 66.105469 C 116.492188 65.875 116.421875 65.621094 116.324219 65.382812 C 116.167969 65.027344 116.074219 64.648438 115.972656 64.269531 C 115.90625 64.019531 115.84375 63.761719 115.792969 63.503906 C 115.71875 63.121094 115.644531 62.730469 115.617188 62.332031 C 115.550781 61.804688 115.546875 61.269531 115.527344 60.738281 C 115.519531 60.21875 115.542969 59.65625 115.59375 59.191406 C 115.667969 58.914062 115.726562 58.660156 115.78125 58.398438 C 115.839844 58.097656 115.882812 57.800781 115.921875 57.5 C 115.996094 56.902344 116.023438 56.292969 116.011719 55.679688 C 116.007812 55.375 115.980469 55.070312 115.949219 54.765625 C 115.910156 54.453125 115.875 54.148438 115.796875 53.84375 C 115.742188 53.542969 115.632812 53.222656 115.523438 52.910156 C 115.46875 52.75 115.410156 52.644531 115.347656 52.503906 L 115.25 52.28125 L 115.101562 52.050781 C 114.929688 51.734375 114.675781 51.488281 114.417969 51.253906 C 114.132812 51.054688 113.855469 50.863281 113.546875 50.753906 C 113.246094 50.625 112.933594 50.558594 112.628906 50.5 C 112.324219 50.445312 112.023438 50.414062 111.726562 50.410156 C 110.53125 50.390625 109.382812 50.613281 108.300781 50.992188 C 108.867188 50.9375 109.4375 50.945312 110 50.964844 C 110.28125 50.976562 110.554688 50.996094 110.828125 51.03125 C 111.109375 51.0625 111.378906 51.109375 111.636719 51.160156 C 111.902344 51.210938 112.160156 51.285156 112.402344 51.371094 C 112.644531 51.464844 112.886719 51.5625 113.085938 51.699219 C 113.300781 51.816406 113.464844 51.972656 113.632812 52.121094 C 113.765625 52.300781 113.902344 52.460938 113.976562 52.664062 L 114.042969 52.808594 C 114.035156 52.8125 114.078125 52.925781 114.089844 52.980469 C 114.125 53.113281 114.183594 53.261719 114.199219 53.378906 C 114.246094 53.609375 114.285156 53.835938 114.316406 54.101562 C 114.351562 54.347656 114.355469 54.609375 114.363281 54.867188 C 114.363281 55.128906 114.359375 55.386719 114.335938 55.648438 C 114.300781 56.171875 114.21875 56.695312 114.117188 57.210938 C 114.0625 57.472656 114.011719 57.730469 113.945312 57.988281 C 113.882812 58.238281 113.800781 58.511719 113.726562 58.71875 L 113.710938 58.769531 L 113.695312 58.847656 C 113.578125 59.507812 113.527344 60.082031 113.496094 60.699219 C 113.464844 61.308594 113.484375 61.914062 113.542969 62.523438 C 113.5625 63.007812 113.648438 63.488281 113.730469 63.96875 C 113.777344 64.21875 113.828125 64.460938 113.886719 64.703125 C 114.007812 65.183594 114.117188 65.660156 114.308594 66.121094 C 114.417969 66.414062 114.519531 66.707031 114.652344 66.988281 L 115.09375 67.820312 L 115.316406 68.234375 L 115.589844 68.617188 L 115.832031 68.957031 C 116.042969 69.238281 116.257812 69.519531 116.496094 69.777344 C 116.589844 69.875 116.679688 69.972656 116.773438 70.066406 C 117.164062 70.46875 117.59375 70.832031 118.046875 71.164062 C 118.210938 71.289062 118.378906 71.410156 118.546875 71.523438 C 118.832031 71.722656 119.144531 71.890625 119.453125 72.050781 C 119.585938 72.121094 119.714844 72.1875 119.847656 72.253906 C 120.304688 72.488281 120.78125 72.6875 121.269531 72.84375 C 121.496094 72.914062 121.722656 72.984375 121.949219 73.054688 C 122.230469 73.144531 122.515625 73.226562 122.804688 73.285156 C 123.246094 73.371094 123.691406 73.425781 124.128906 73.511719 L 124.574219 73.582031 L 124.957031 73.640625 C 125.210938 73.679688 125.476562 73.730469 125.738281 73.796875 C 126.253906 73.929688 126.769531 74.089844 127.253906 74.308594 C 132.472656 76.851562 132.617188 82.078125 132.738281 82.644531 C 132.761719 82.078125 133.472656 75.996094 127.816406 73.003906 " fill-opacity="1" fill-rule="nonzero"/></g><path fill="#ffffff" d="M 164.546875 42.050781 C 164.273438 41.734375 163.851562 41.269531 163.242188 40.757812 C 162.042969 39.730469 160.085938 38.4375 157.425781 37.636719 C 154.789062 36.796875 151.488281 36.5 148.058594 36.933594 C 147.628906 36.980469 147.191406 37.058594 146.746094 37.125 C 146.710938 37.128906 146.671875 37.136719 146.636719 37.140625 C 145.378906 37.445312 144.128906 37.746094 142.875 38.054688 C 142.867188 38.054688 142.863281 38.058594 142.855469 38.058594 C 141.121094 38.625 139.34375 39.371094 137.796875 40.578125 C 136.242188 41.769531 135 43.429688 134.292969 45.171875 C 133.570312 46.917969 133.195312 48.632812 132.738281 50.195312 C 132.304688 51.765625 131.464844 53.085938 130.675781 54.300781 C 129.871094 55.519531 129.171875 56.648438 128.175781 57.441406 C 127.183594 58.25 126.121094 58.796875 125.121094 59.109375 C 124.125 59.441406 123.195312 59.539062 122.429688 59.53125 C 121.664062 59.542969 119.320312 58.804688 119.320312 58.804688 C 119.320312 58.804688 121.277344 60.503906 122.070312 60.605469 C 122.855469 60.699219 127.234375 63.039062 132.28125 56.050781 C 133.679688 54.027344 133.832031 52.351562 134.414062 50.742188 C 135.003906 49.132812 135.429688 47.464844 136.136719 45.992188 C 136.828125 44.519531 137.785156 43.234375 139.089844 42.269531 C 140.390625 41.3125 141.921875 40.59375 143.507812 40.058594 C 143.90625 39.925781 144.308594 39.8125 144.710938 39.6875 C 144.980469 39.617188 145.253906 39.546875 145.523438 39.472656 C 146.417969 39.28125 147.296875 39.085938 148.191406 38.890625 C 148.238281 38.882812 148.289062 38.871094 148.335938 38.863281 C 149.929688 38.597656 151.488281 38.484375 152.964844 38.476562 C 154.445312 38.484375 155.835938 38.644531 157.105469 38.890625 C 159.652344 39.394531 161.65625 40.328125 162.976562 41.125 C 164.296875 41.921875 164.945312 42.5625 164.945312 42.5625 C 164.945312 42.5625 164.820312 42.375 164.546875 42.050781 " fill-opacity="1" fill-rule="nonzero"/><path fill="#ffffff" d="M 138.628906 69.738281 C 138.324219 69.820312 137.964844 69.851562 137.585938 69.929688 C 137.402344 69.964844 137.207031 70 137.007812 70.039062 C 136.804688 70.058594 136.59375 70.074219 136.378906 70.09375 C 136.164062 70.117188 135.945312 70.132812 135.726562 70.15625 C 135.5 70.144531 135.273438 70.152344 135.042969 70.144531 C 134.582031 70.175781 134.117188 70.070312 133.648438 70.027344 C 133.410156 70.019531 133.1875 69.917969 132.960938 69.871094 C 132.730469 69.808594 132.488281 69.773438 132.273438 69.671875 L 131.609375 69.421875 C 131.398438 69.308594 131.1875 69.199219 130.980469 69.09375 C 130.765625 68.996094 130.582031 68.84375 130.382812 68.726562 C 130.183594 68.601562 129.996094 68.472656 129.824219 68.320312 C 129.46875 68.039062 129.144531 67.734375 128.84375 67.433594 C 128.6875 67.285156 128.574219 67.113281 128.4375 66.96875 C 128.292969 66.820312 128.171875 66.667969 128.066406 66.511719 C 127.835938 66.210938 127.644531 65.921875 127.480469 65.65625 C 127.308594 65.390625 127.210938 65.152344 127.089844 64.953125 C 126.902344 64.527344 126.800781 64.28125 126.800781 64.28125 C 126.800781 64.28125 126.800781 64.347656 126.800781 64.46875 C 126.804688 64.59375 126.78125 64.78125 126.8125 65.015625 C 126.855469 65.242188 126.871094 65.554688 126.976562 65.863281 C 127.023438 66.027344 127.074219 66.199219 127.125 66.378906 C 127.1875 66.558594 127.277344 66.738281 127.355469 66.925781 C 127.511719 67.316406 127.75 67.699219 128.011719 68.101562 C 128.152344 68.296875 128.304688 68.496094 128.453125 68.695312 C 128.605469 68.902344 128.804688 69.070312 128.984375 69.261719 C 129.167969 69.460938 129.375 69.628906 129.589844 69.796875 C 129.808594 69.964844 130.011719 70.160156 130.265625 70.289062 C 130.507812 70.425781 130.753906 70.566406 131.003906 70.707031 L 131.800781 71.027344 C 132.066406 71.148438 132.347656 71.191406 132.628906 71.257812 C 132.90625 71.316406 133.179688 71.402344 133.460938 71.410156 C 134.015625 71.453125 134.566406 71.484375 135.085938 71.414062 C 135.351562 71.386719 135.609375 71.371094 135.859375 71.332031 C 136.101562 71.269531 136.335938 71.210938 136.566406 71.152344 C 136.796875 71.089844 137.015625 71.03125 137.234375 70.972656 C 137.4375 70.886719 137.632812 70.800781 137.824219 70.722656 C 138.195312 70.558594 138.542969 70.421875 138.824219 70.253906 C 139.109375 70.085938 139.347656 69.925781 139.542969 69.796875 C 139.933594 69.535156 140.144531 69.378906 140.144531 69.378906 C 140.144531 69.378906 139.875 69.429688 139.429688 69.535156 C 139.203125 69.589844 138.929688 69.652344 138.628906 69.738281 " fill-opacity="1" fill-rule="nonzero"/><path fill="#ffffff" d="M 139.035156 32.4375 C 139.273438 32.441406 139.480469 32.449219 139.65625 32.449219 C 140.003906 32.453125 140.207031 32.441406 140.207031 32.441406 C 140.207031 32.441406 140.011719 32.390625 139.675781 32.308594 C 139.503906 32.269531 139.296875 32.226562 139.058594 32.171875 C 138.816406 32.105469 138.539062 32.089844 138.238281 32.058594 C 137.9375 32.039062 137.609375 31.972656 137.261719 32 C 136.914062 32.011719 136.542969 32.007812 136.164062 32.046875 C 135.785156 32.109375 135.394531 32.144531 135 32.238281 C 134.613281 32.355469 134.210938 32.429688 133.828125 32.582031 C 133.449219 32.734375 133.066406 32.871094 132.707031 33.066406 C 132.34375 33.234375 132.011719 33.453125 131.6875 33.660156 C 131.363281 33.859375 131.082031 34.109375 130.808594 34.320312 C 130.546875 34.550781 130.300781 34.765625 130.097656 34.996094 C 129.667969 35.425781 129.382812 35.851562 129.183594 36.140625 C 128.988281 36.433594 128.90625 36.613281 128.90625 36.613281 C 128.90625 36.613281 129.042969 36.46875 129.289062 36.230469 C 129.539062 35.984375 129.90625 35.65625 130.371094 35.300781 C 130.832031 34.941406 131.390625 34.554688 132.019531 34.195312 C 132.335938 34.015625 132.667969 33.847656 133.011719 33.691406 C 133.347656 33.515625 133.710938 33.394531 134.070312 33.257812 C 134.421875 33.113281 134.804688 33.03125 135.164062 32.914062 C 135.535156 32.832031 135.898438 32.753906 136.25 32.675781 C 136.609375 32.628906 136.960938 32.582031 137.285156 32.535156 C 137.617188 32.484375 137.9375 32.5 138.230469 32.46875 C 138.523438 32.460938 138.792969 32.425781 139.035156 32.4375 " fill-opacity="1" fill-rule="nonzero"/><path fill="#ffffff" d="M 136.582031 36.011719 C 136.785156 35.96875 136.964844 35.925781 137.109375 35.898438 C 137.40625 35.832031 137.574219 35.78125 137.574219 35.78125 C 137.574219 35.78125 137.402344 35.765625 137.101562 35.753906 C 136.945312 35.753906 136.761719 35.75 136.546875 35.746094 C 136.332031 35.734375 136.097656 35.773438 135.835938 35.804688 C 135.574219 35.839844 135.28125 35.847656 134.996094 35.941406 C 134.703125 36.019531 134.382812 36.078125 134.074219 36.199219 C 133.769531 36.332031 133.433594 36.421875 133.128906 36.597656 C 132.820312 36.769531 132.496094 36.914062 132.207031 37.128906 C 131.914062 37.328125 131.628906 37.539062 131.363281 37.773438 C 131.085938 37.988281 130.863281 38.253906 130.628906 38.488281 C 130.183594 38.984375 129.820312 39.488281 129.570312 39.949219 C 129.300781 40.402344 129.144531 40.820312 129.035156 41.097656 C 128.933594 41.386719 128.898438 41.558594 128.898438 41.558594 C 128.898438 41.558594 128.988281 41.414062 129.15625 41.164062 C 129.320312 40.914062 129.582031 40.574219 129.90625 40.183594 C 130.222656 39.789062 130.628906 39.359375 131.078125 38.929688 C 131.542969 38.511719 132.042969 38.074219 132.605469 37.726562 C 132.867188 37.523438 133.167969 37.382812 133.445312 37.210938 C 133.730469 37.050781 134.027344 36.929688 134.304688 36.785156 C 134.585938 36.660156 134.875 36.566406 135.140625 36.453125 C 135.40625 36.339844 135.675781 36.285156 135.914062 36.207031 C 136.164062 36.144531 136.378906 36.046875 136.582031 36.011719 " fill-opacity="1" fill-rule="nonzero"/><path fill="#ffffff" d="M 134.351562 40.335938 C 134.132812 40.378906 133.882812 40.390625 133.636719 40.476562 C 133.386719 40.550781 133.117188 40.613281 132.851562 40.71875 C 132.597656 40.832031 132.316406 40.9375 132.050781 41.082031 C 131.800781 41.246094 131.519531 41.378906 131.28125 41.570312 C 131.039062 41.757812 130.796875 41.941406 130.582031 42.152344 C 130.351562 42.351562 130.167969 42.582031 129.984375 42.804688 C 129.796875 43.015625 129.652344 43.253906 129.507812 43.472656 C 129.375 43.699219 129.25 43.90625 129.15625 44.121094 C 128.769531 44.9375 128.71875 45.546875 128.71875 45.546875 C 128.71875 45.546875 129 45.019531 129.511719 44.328125 C 129.769531 43.980469 130.085938 43.597656 130.453125 43.21875 C 130.824219 42.84375 131.246094 42.472656 131.703125 42.148438 C 132.148438 41.8125 132.640625 41.546875 133.109375 41.296875 C 133.347656 41.1875 133.582031 41.082031 133.804688 40.984375 C 134.027344 40.878906 134.25 40.820312 134.453125 40.742188 C 134.660156 40.667969 134.839844 40.585938 135.011719 40.546875 C 135.183594 40.492188 135.332031 40.449219 135.453125 40.414062 C 135.703125 40.332031 135.84375 40.285156 135.84375 40.285156 C 135.84375 40.285156 135.695312 40.28125 135.4375 40.269531 C 135.175781 40.277344 134.796875 40.253906 134.351562 40.335938 " fill-opacity="1" fill-rule="nonzero"/><g fill="#ffffff" fill-opacity="1"><g transform="translate(157.471338, 86.541595)"><g><path d="M 9.875 -12.171875 L 9.875 -9.859375 L 3.96875 -9.859375 L 3.96875 -7.265625 L 9.203125 -7.265625 L 9.203125 -4.953125 L 3.96875 -4.953125 L 3.96875 -2.3125 L 10.109375 -2.3125 L 10.109375 0 L 1.578125 0 L 1.578125 -12.171875 Z M 9.875 -12.171875 "/></g></g></g><g fill="#ffffff" fill-opacity="1"><g transform="translate(181.728998, 86.541595)"><g><path d="M 9.875 -12.171875 L 9.875 -9.859375 L 3.96875 -9.859375 L 3.96875 -7.265625 L 9.203125 -7.265625 L 9.203125 -4.953125 L 3.96875 -4.953125 L 3.96875 -2.3125 L 10.109375 -2.3125 L 10.109375 0 L 1.578125 0 L 1.578125 -12.171875 Z M 9.875 -12.171875 "/></g></g></g><g fill="#ffffff" fill-opacity="1"><g transform="translate(205.986659, 86.541595)"><g><path d="M 10.703125 -1.015625 C 10.398438 -0.753906 9.910156 -0.5 9.234375 -0.25 C 8.554688 0 7.820312 0.125 7.03125 0.125 C 5.757812 0.125 4.65625 -0.144531 3.71875 -0.6875 C 2.78125 -1.238281 2.0625 -1.976562 1.5625 -2.90625 C 1.070312 -3.84375 0.828125 -4.867188 0.828125 -5.984375 C 0.828125 -7.210938 1.070312 -8.304688 1.5625 -9.265625 C 2.0625 -10.222656 2.757812 -10.96875 3.65625 -11.5 C 4.550781 -12.039062 5.582031 -12.3125 6.75 -12.3125 C 7.488281 -12.3125 8.171875 -12.210938 8.796875 -12.015625 C 9.429688 -11.816406 9.984375 -11.566406 10.453125 -11.265625 L 9.515625 -9 C 8.640625 -9.664062 7.742188 -10 6.828125 -10 C 6.210938 -10 5.632812 -9.828125 5.09375 -9.484375 C 4.550781 -9.140625 4.117188 -8.671875 3.796875 -8.078125 C 3.484375 -7.492188 3.328125 -6.84375 3.328125 -6.125 C 3.328125 -5.34375 3.472656 -4.65625 3.765625 -4.0625 C 4.066406 -3.46875 4.492188 -3.003906 5.046875 -2.671875 C 5.597656 -2.347656 6.242188 -2.1875 6.984375 -2.1875 C 7.578125 -2.1875 8.109375 -2.28125 8.578125 -2.46875 C 9.054688 -2.664062 9.4375 -2.894531 9.71875 -3.15625 Z M 10.703125 -1.015625 "/></g></g></g><g fill="#ffffff" fill-opacity="1"><g transform="translate(167.581286, 107.945272)"><g><path d="M 4.15625 -5.65625 L 4.15625 -4.78125 L 2.6875 -4.78125 L 2.6875 0 L 1.796875 0 L 1.796875 -4.78125 L 0.375 -4.78125 L 0.375 -5.65625 Z M 4.15625 -5.65625 "/></g></g></g><g fill="#ffffff" fill-opacity="1"><g transform="translate(175.216455, 107.945272)"><g><path d="M 3.6875 -1.328125 L 1.625 -1.328125 L 1.078125 0 L 0.1875 0 L 2.6875 -5.890625 L 2.734375 -5.890625 L 5.234375 0 L 4.203125 0 Z M 3.375 -2.109375 L 2.671875 -3.890625 L 1.9375 -2.109375 Z M 3.375 -2.109375 "/></g></g></g><g fill="#ffffff" fill-opacity="1"><g transform="translate(183.752626, 107.945272)"><g><path d="M 6.484375 -5.859375 L 6.484375 0 L 5.578125 0 L 5.578125 -3.265625 L 3.609375 -0.453125 L 3.59375 -0.453125 L 1.65625 -3.140625 L 1.65625 0 L 0.78125 0 L 0.78125 -5.859375 L 3.609375 -1.859375 L 6.46875 -5.859375 Z M 6.484375 -5.859375 "/></g></g></g><g fill="#ffffff" fill-opacity="1"><g transform="translate(194.121863, 107.945272)"><g><path d="M 2.375 -5.65625 C 3.019531 -5.65625 3.519531 -5.492188 3.875 -5.171875 C 4.238281 -4.847656 4.421875 -4.40625 4.421875 -3.84375 C 4.421875 -3.507812 4.351562 -3.203125 4.21875 -2.921875 C 4.09375 -2.640625 3.882812 -2.410156 3.59375 -2.234375 C 3.3125 -2.054688 2.945312 -1.96875 2.5 -1.96875 L 1.6875 -1.96875 L 1.6875 0 L 0.78125 0 L 0.78125 -5.65625 Z M 2.5 -2.828125 C 2.75 -2.828125 2.945312 -2.878906 3.09375 -2.984375 C 3.25 -3.097656 3.359375 -3.226562 3.421875 -3.375 C 3.492188 -3.53125 3.53125 -3.679688 3.53125 -3.828125 C 3.53125 -4.054688 3.453125 -4.269531 3.296875 -4.46875 C 3.140625 -4.675781 2.882812 -4.78125 2.53125 -4.78125 L 1.6875 -4.78125 L 1.6875 -2.828125 Z M 2.5 -2.828125 "/></g></g></g><g fill="#ffffff" fill-opacity="1"><g transform="translate(201.974512, 107.945272)"><g><path d="M 3.6875 -1.328125 L 1.625 -1.328125 L 1.078125 0 L 0.1875 0 L 2.6875 -5.890625 L 2.734375 -5.890625 L 5.234375 0 L 4.203125 0 Z M 3.375 -2.109375 L 2.671875 -3.890625 L 1.9375 -2.109375 Z M 3.375 -2.109375 "/></g></g></g><g fill="#ffffff" fill-opacity="1"><g transform="translate(153.261195, 126.440223)"><g><path d="M 0.421875 0 L 1.875 -3.515625 C 1.40625 -3.535156 1.050781 -3.65625 0.8125 -3.875 C 0.582031 -4.101562 0.46875 -4.445312 0.46875 -4.90625 L 0.46875 -5.5 L 1.171875 -5.5 L 1.171875 -4.96875 C 1.171875 -4.632812 1.234375 -4.410156 1.359375 -4.296875 C 1.492188 -4.179688 1.691406 -4.125 1.953125 -4.125 L 2.859375 -4.125 L 2.390625 -2.96875 C 2.679688 -2.863281 2.941406 -2.695312 3.171875 -2.46875 C 3.410156 -2.238281 3.609375 -1.925781 3.765625 -1.53125 C 3.921875 -1.132812 4.019531 -0.625 4.0625 0 L 3.359375 0 C 3.335938 -0.46875 3.269531 -0.851562 3.15625 -1.15625 C 3.039062 -1.46875 2.894531 -1.71875 2.71875 -1.90625 C 2.550781 -2.09375 2.359375 -2.238281 2.140625 -2.34375 L 1.203125 0 Z M 5.203125 0.625 C 5.035156 0.625 4.894531 0.554688 4.78125 0.421875 C 4.675781 0.285156 4.601562 0.144531 4.5625 0 L 3.484375 0 L 3.484375 -0.5625 L 4.5625 -0.5625 C 4.601562 -0.707031 4.675781 -0.847656 4.78125 -0.984375 C 4.894531 -1.117188 5.035156 -1.1875 5.203125 -1.1875 L 5.390625 -1.1875 L 5.1875 -0.28125 L 5.390625 0.625 Z M 5.203125 0.625 "/></g></g></g><g fill="#ffffff" fill-opacity="1"><g transform="translate(161.842632, 126.440223)"><g><path d="M 1.515625 0 L 1.515625 -0.71875 C 1.515625 -1.113281 1.476562 -1.460938 1.40625 -1.765625 C 1.34375 -2.078125 1.222656 -2.378906 1.046875 -2.671875 C 0.929688 -2.828125 0.820312 -2.984375 0.71875 -3.140625 C 0.625 -3.304688 0.546875 -3.472656 0.484375 -3.640625 C 0.421875 -3.816406 0.390625 -4.007812 0.390625 -4.21875 C 0.390625 -4.664062 0.523438 -5.003906 0.796875 -5.234375 C 1.066406 -5.460938 1.429688 -5.578125 1.890625 -5.578125 C 2.367188 -5.578125 2.722656 -5.453125 2.953125 -5.203125 C 3.179688 -4.960938 3.296875 -4.644531 3.296875 -4.25 C 3.296875 -3.832031 3.15625 -3.488281 2.875 -3.21875 C 2.601562 -2.957031 2.25 -2.773438 1.8125 -2.671875 C 1.914062 -2.460938 1.992188 -2.269531 2.046875 -2.09375 C 2.109375 -1.914062 2.148438 -1.726562 2.171875 -1.53125 C 2.191406 -1.34375 2.203125 -1.113281 2.203125 -0.84375 L 2.203125 0 Z M 1.546875 -3.140625 C 1.878906 -3.210938 2.140625 -3.335938 2.328125 -3.515625 C 2.523438 -3.703125 2.625 -3.945312 2.625 -4.25 C 2.625 -4.507812 2.554688 -4.707031 2.421875 -4.84375 C 2.285156 -4.976562 2.097656 -5.046875 1.859375 -5.046875 C 1.617188 -5.046875 1.425781 -4.976562 1.28125 -4.84375 C 1.144531 -4.707031 1.078125 -4.515625 1.078125 -4.265625 C 1.078125 -4.046875 1.117188 -3.84375 1.203125 -3.65625 C 1.296875 -3.476562 1.410156 -3.304688 1.546875 -3.140625 Z M 1.546875 -3.140625 "/></g></g></g><g fill="#ffffff" fill-opacity="1"><g transform="translate(168.530758, 126.440223)"><g><path d="M 0.6875 0 L 0.6875 -2.78125 C 0.6875 -3.300781 0.796875 -3.726562 1.015625 -4.0625 C 1.234375 -4.40625 1.570312 -4.613281 2.03125 -4.6875 L 2.03125 -5.859375 L 2.734375 -5.859375 L 2.734375 -4.703125 C 3.203125 -4.640625 3.539062 -4.441406 3.75 -4.109375 C 3.957031 -3.773438 4.0625 -3.328125 4.0625 -2.765625 L 4.0625 0 L 3.359375 0 L 3.359375 -2.734375 C 3.359375 -3.171875 3.285156 -3.507812 3.140625 -3.75 C 2.992188 -3.988281 2.742188 -4.109375 2.390625 -4.109375 C 2.003906 -4.109375 1.738281 -3.976562 1.59375 -3.71875 C 1.457031 -3.46875 1.390625 -3.132812 1.390625 -2.71875 L 1.390625 0 Z M 5.21875 -1.484375 C 5.050781 -1.484375 4.910156 -1.550781 4.796875 -1.6875 C 4.691406 -1.820312 4.617188 -1.960938 4.578125 -2.109375 L 3.5 -2.109375 L 3.5 -2.671875 L 4.578125 -2.671875 C 4.617188 -2.816406 4.691406 -2.957031 4.796875 -3.09375 C 4.910156 -3.226562 5.050781 -3.296875 5.21875 -3.296875 L 5.40625 -3.296875 L 5.203125 -2.390625 L 5.40625 -1.484375 Z M 5.21875 -1.484375 "/></g></g></g><g fill="#ffffff" fill-opacity="1"><g transform="translate(177.119887, 126.440223)"><g><path d="M 0.6875 0 L 0.6875 -2.78125 C 0.6875 -3.289062 0.789062 -3.710938 1 -4.046875 C 1.21875 -4.390625 1.546875 -4.601562 1.984375 -4.6875 L 1.40625 -5.859375 L 2.15625 -5.859375 L 2.734375 -4.703125 C 3.203125 -4.640625 3.539062 -4.441406 3.75 -4.109375 C 3.957031 -3.785156 4.0625 -3.335938 4.0625 -2.765625 L 4.0625 0 L 3.359375 0 L 3.359375 -2.734375 C 3.359375 -3.171875 3.285156 -3.507812 3.140625 -3.75 C 2.992188 -3.988281 2.742188 -4.109375 2.390625 -4.109375 C 2.003906 -4.109375 1.738281 -3.976562 1.59375 -3.71875 C 1.457031 -3.46875 1.390625 -3.132812 1.390625 -2.71875 L 1.390625 0 Z M 0.6875 0 "/></g></g></g><g fill="#ffffff" fill-opacity="1"><g transform="translate(184.954771, 126.440223)"><g/></g></g><g fill="#ffffff" fill-opacity="1"><g transform="translate(190.727027, 126.440223)"><g><path d="M 3 0 L 3 -2.90625 C 3 -3.457031 2.9375 -3.878906 2.8125 -4.171875 C 2.6875 -4.460938 2.484375 -4.660156 2.203125 -4.765625 C 1.921875 -4.878906 1.550781 -4.9375 1.09375 -4.9375 L 0.953125 -4.9375 C 0.878906 -4.71875 0.78125 -4.554688 0.65625 -4.453125 C 0.539062 -4.359375 0.410156 -4.3125 0.265625 -4.3125 L 0.109375 -4.3125 L 0.375 -5.5 L 1.109375 -5.5 C 1.523438 -5.5 1.894531 -5.460938 2.21875 -5.390625 C 2.539062 -5.328125 2.8125 -5.207031 3.03125 -5.03125 C 3.25 -4.863281 3.414062 -4.625 3.53125 -4.3125 C 3.644531 -4 3.703125 -3.597656 3.703125 -3.109375 L 3.703125 0 Z M 3.015625 0 L 3.015625 -2.03125 L 4.328125 -2.03125 C 5.085938 -2.03125 5.46875 -1.691406 5.46875 -1.015625 C 5.46875 -0.722656 5.363281 -0.476562 5.15625 -0.28125 C 4.945312 -0.09375 4.601562 0 4.125 0 Z M 3.71875 -0.515625 L 4.0625 -0.515625 C 4.332031 -0.515625 4.519531 -0.554688 4.625 -0.640625 C 4.726562 -0.734375 4.78125 -0.859375 4.78125 -1.015625 C 4.78125 -1.179688 4.734375 -1.304688 4.640625 -1.390625 C 4.554688 -1.472656 4.410156 -1.515625 4.203125 -1.515625 L 3.71875 -1.515625 Z M 3.71875 -0.515625 "/></g></g></g><g fill="#ffffff" fill-opacity="1"><g transform="translate(199.40082, 126.440223)"><g><path d="M 0.109375 0.625 L 0.375 -0.5625 L 1.03125 -0.5625 C 1.300781 -0.5625 1.515625 -0.597656 1.671875 -0.671875 C 1.828125 -0.742188 1.9375 -0.867188 2 -1.046875 C 2.070312 -1.234375 2.109375 -1.476562 2.109375 -1.78125 L 2.109375 -5.5 L 2.796875 -5.5 L 2.796875 -1.71875 C 2.796875 -1.164062 2.660156 -0.738281 2.390625 -0.4375 C 2.117188 -0.144531 1.703125 0 1.140625 0 L 0.953125 0 C 0.898438 0.175781 0.8125 0.320312 0.6875 0.4375 C 0.570312 0.5625 0.429688 0.625 0.265625 0.625 Z M 0.234375 -2.9375 L 0.5 -4.125 L 4.375 -4.125 L 4.640625 -2.9375 L 4.484375 -2.9375 C 4.328125 -2.9375 4.1875 -2.988281 4.0625 -3.09375 C 3.945312 -3.207031 3.863281 -3.363281 3.8125 -3.5625 L 1.078125 -3.5625 C 1.015625 -3.363281 0.921875 -3.207031 0.796875 -3.09375 C 0.679688 -2.988281 0.546875 -2.9375 0.390625 -2.9375 Z M 0.234375 -2.9375 "/></g></g></g><g fill="#ffffff" fill-opacity="1"><g transform="translate(207.235706, 126.440223)"><g/></g></g><g fill="#ffffff" fill-opacity="1"><g transform="translate(213.007965, 126.440223)"><g><path d="M 1.75 0 L 1.75 -3.5625 C 1.34375 -3.570312 1.023438 -3.679688 0.796875 -3.890625 C 0.578125 -4.109375 0.46875 -4.445312 0.46875 -4.90625 L 0.46875 -5.5 L 1.15625 -5.5 L 1.15625 -4.96875 C 1.15625 -4.632812 1.21875 -4.410156 1.34375 -4.296875 C 1.476562 -4.179688 1.679688 -4.125 1.953125 -4.125 L 2.453125 -4.125 L 2.453125 0 Z M 1.75 0 "/></g></g></g><g fill="#ffffff" fill-opacity="1"><g transform="translate(219.311273, 126.440223)"><g><path d="M 2 0.078125 C 1.476562 0.078125 1.101562 -0.128906 0.875 -0.546875 C 0.65625 -0.972656 0.546875 -1.59375 0.546875 -2.40625 C 0.546875 -3.019531 0.617188 -3.554688 0.765625 -4.015625 C 0.921875 -4.484375 1.144531 -4.847656 1.4375 -5.109375 C 1.738281 -5.367188 2.101562 -5.5 2.53125 -5.5 L 3.765625 -5.5 C 4.285156 -5.5 4.671875 -5.296875 4.921875 -4.890625 C 5.171875 -4.484375 5.296875 -3.875 5.296875 -3.0625 C 5.296875 -2.25 5.164062 -1.628906 4.90625 -1.203125 C 4.65625 -0.773438 4.273438 -0.5625 3.765625 -0.5625 L 3.25 -0.5625 C 3.09375 -0.375 2.910156 -0.21875 2.703125 -0.09375 C 2.503906 0.0195312 2.269531 0.078125 2 0.078125 Z M 2.03125 -0.484375 C 2.300781 -0.484375 2.523438 -0.613281 2.703125 -0.875 L 2.703125 -4.953125 L 2.59375 -4.953125 C 2.15625 -4.953125 1.816406 -4.742188 1.578125 -4.328125 C 1.335938 -3.910156 1.21875 -3.273438 1.21875 -2.421875 C 1.21875 -1.742188 1.289062 -1.25 1.4375 -0.9375 C 1.582031 -0.632812 1.78125 -0.484375 2.03125 -0.484375 Z M 3.40625 -1.109375 L 3.65625 -1.109375 C 3.90625 -1.109375 4.097656 -1.1875 4.234375 -1.34375 C 4.367188 -1.507812 4.460938 -1.738281 4.515625 -2.03125 C 4.578125 -2.320312 4.609375 -2.664062 4.609375 -3.0625 C 4.609375 -3.4375 4.578125 -3.765625 4.515625 -4.046875 C 4.460938 -4.328125 4.367188 -4.546875 4.234375 -4.703125 C 4.097656 -4.867188 3.921875 -4.953125 3.703125 -4.953125 L 3.40625 -4.953125 Z M 6.40625 -2.046875 C 6.238281 -2.046875 6.097656 -2.113281 5.984375 -2.25 C 5.878906 -2.382812 5.804688 -2.523438 5.765625 -2.671875 L 4.6875 -2.671875 L 4.6875 -3.234375 L 5.765625 -3.234375 C 5.804688 -3.378906 5.878906 -3.519531 5.984375 -3.65625 C 6.097656 -3.789062 6.238281 -3.859375 6.40625 -3.859375 L 6.59375 -3.859375 L 6.390625 -2.953125 L 6.59375 -2.046875 Z M 6.40625 -2.046875 "/></g></g></g><g fill="#ffffff" fill-opacity="1"><g transform="translate(229.102014, 126.440223)"><g/></g></g></svg>