<svg xmlns="http://www.w3.org/2000/svg" xmlns:xlink="http://www.w3.org/1999/xlink" width="500" zoomAndPan="magnify" viewBox="0 0 375 374.999991" height="500" preserveAspectRatio="xMidYMid meet" version="1.0"><defs><g/><clipPath id="18404be65e"><path d="M 123.273438 25 L 251.523438 25 L 251.523438 159 L 123.273438 159 Z M 123.273438 25 " clip-rule="nonzero"/></clipPath><clipPath id="e10ca983e5"><path d="M 108.125 27.917969 L 141 27.917969 L 141 51 L 108.125 51 Z M 108.125 27.917969 " clip-rule="nonzero"/></clipPath><clipPath id="d2b76975b6"><path d="M 108.300781 50 L 133 50 L 133 82.375 L 108.300781 82.375 Z M 108.300781 50 " clip-rule="nonzero"/></clipPath></defs><g clip-path="url(#18404be65e)"><path fill="#ffffff" d="M 171.347656 27.859375 C 173.429688 27.335938 175.535156 26.914062 177.65625 26.597656 C 179.78125 26.28125 181.914062 26.066406 184.058594 25.957031 C 186.199219 25.84375 188.34375 25.839844 190.488281 25.9375 C 192.632812 26.035156 194.769531 26.238281 196.894531 26.542969 C 199.019531 26.847656 201.125 27.257812 203.207031 27.765625 C 205.292969 28.277344 207.347656 28.886719 209.375 29.597656 C 211.402344 30.308594 213.386719 31.113281 215.335938 32.019531 C 217.28125 32.921875 219.179688 33.917969 221.03125 35.003906 C 222.882812 36.09375 224.675781 37.269531 226.414062 38.53125 C 228.148438 39.792969 229.820312 41.136719 231.425781 42.5625 C 233.03125 43.988281 234.5625 45.488281 236.023438 47.0625 C 237.484375 48.632812 238.863281 50.277344 240.164062 51.984375 C 241.464844 53.691406 242.679688 55.460938 243.804688 57.285156 C 244.933594 59.113281 245.972656 60.988281 246.917969 62.914062 C 247.863281 64.84375 248.714844 66.8125 249.46875 68.820312 C 250.222656 70.832031 250.878906 72.871094 251.433594 74.945312 C 251.539062 75.328125 251.636719 75.71875 251.734375 76.117188 L 250.722656 76.46875 C 250.621094 76.050781 250.515625 75.636719 250.402344 75.222656 C 250.128906 74.195312 249.828125 73.175781 249.503906 72.160156 C 249.175781 71.148438 248.828125 70.144531 248.453125 69.152344 C 248.078125 68.15625 247.679688 67.171875 247.257812 66.195312 C 246.835938 65.21875 246.390625 64.253906 245.921875 63.300781 C 245.449219 62.347656 244.957031 61.40625 244.441406 60.472656 C 243.925781 59.542969 243.386719 58.628906 242.828125 57.726562 C 242.265625 56.820312 241.683594 55.933594 241.078125 55.058594 C 240.476562 54.183594 239.851562 53.324219 239.203125 52.480469 C 238.558594 51.632812 237.890625 50.808594 237.203125 49.996094 C 236.515625 49.183594 235.8125 48.390625 235.085938 47.613281 C 234.359375 46.835938 233.617188 46.078125 232.851562 45.335938 C 232.089844 44.59375 231.308594 43.875 230.511719 43.171875 C 229.710938 42.46875 228.898438 41.785156 228.066406 41.125 C 227.234375 40.460938 226.386719 39.820312 225.523438 39.199219 C 224.660156 38.578125 223.785156 37.980469 222.890625 37.402344 C 222 36.824219 221.09375 36.265625 220.171875 35.734375 C 219.253906 35.199219 218.320312 34.6875 217.375 34.199219 C 216.433594 33.714844 215.476562 33.25 214.507812 32.808594 C 213.542969 32.367188 212.5625 31.949219 211.574219 31.554688 C 210.589844 31.164062 209.589844 30.792969 208.585938 30.449219 C 207.578125 30.105469 206.566406 29.785156 205.542969 29.488281 C 204.523438 29.195312 203.496094 28.925781 202.460938 28.679688 C 201.425781 28.4375 200.386719 28.21875 199.339844 28.023438 C 198.292969 27.828125 197.246094 27.664062 196.191406 27.519531 C 195.136719 27.378906 194.082031 27.261719 193.023438 27.171875 C 191.960938 27.082031 190.902344 27.015625 189.839844 26.976562 C 188.777344 26.9375 187.714844 26.925781 186.648438 26.941406 C 185.585938 26.953125 184.523438 26.992188 183.464844 27.058594 C 182.402344 27.125 181.34375 27.214844 180.285156 27.332031 C 179.230469 27.449219 178.175781 27.59375 177.128906 27.761719 C 176.078125 27.929688 175.03125 28.125 173.992188 28.347656 C 172.953125 28.566406 171.917969 28.8125 170.890625 29.082031 C 171.050781 28.679688 171.207031 28.273438 171.347656 27.859375 Z M 124.285156 107.921875 C 124.371094 108.265625 124.457031 108.601562 124.546875 108.945312 C 124.824219 109.972656 125.125 110.996094 125.449219 112.011719 C 125.777344 113.027344 126.128906 114.03125 126.503906 115.03125 C 126.878906 116.027344 127.277344 117.015625 127.703125 117.992188 C 128.125 118.972656 128.574219 119.9375 129.046875 120.894531 C 129.515625 121.851562 130.011719 122.792969 130.527344 123.726562 C 131.046875 124.65625 131.585938 125.574219 132.148438 126.480469 C 132.710938 127.386719 133.296875 128.277344 133.902344 129.152344 C 134.511719 130.03125 135.136719 130.890625 135.785156 131.738281 C 136.433594 132.582031 137.105469 133.410156 137.792969 134.222656 C 138.484375 135.039062 139.191406 135.832031 139.921875 136.609375 C 140.648438 137.390625 141.398438 138.148438 142.164062 138.890625 C 142.929688 139.632812 143.710938 140.355469 144.511719 141.054688 C 145.3125 141.757812 146.132812 142.441406 146.96875 143.105469 C 147.800781 143.769531 148.652344 144.410156 149.519531 145.03125 C 150.386719 145.652344 151.265625 146.25 152.160156 146.828125 C 153.058594 147.40625 153.964844 147.960938 154.890625 148.496094 C 155.8125 149.027344 156.746094 149.539062 157.695312 150.027344 C 158.644531 150.511719 159.601562 150.976562 160.574219 151.417969 C 161.546875 151.855469 162.527344 152.273438 163.515625 152.664062 C 164.507812 153.058594 165.507812 153.425781 166.519531 153.769531 C 167.527344 154.109375 168.542969 154.429688 169.570312 154.722656 C 170.59375 155.015625 171.625 155.28125 172.664062 155.523438 C 173.699219 155.765625 174.746094 155.984375 175.792969 156.175781 C 176.839844 156.367188 177.894531 156.53125 178.949219 156.671875 C 180.007812 156.8125 181.066406 156.925781 182.128906 157.011719 C 183.191406 157.097656 184.253906 157.160156 185.320312 157.195312 C 186.386719 157.230469 187.453125 157.242188 188.515625 157.222656 C 189.582031 157.207031 190.648438 157.164062 191.710938 157.09375 C 192.773438 157.023438 193.835938 156.929688 194.894531 156.808594 C 195.953125 156.6875 197.007812 156.539062 198.0625 156.367188 C 199.113281 156.191406 200.160156 155.996094 201.203125 155.769531 C 202.242188 155.546875 203.28125 155.296875 204.308594 155.019531 C 204.144531 155.425781 203.984375 155.832031 203.832031 156.246094 C 202.792969 156.507812 201.742188 156.75 200.691406 156.964844 C 199.636719 157.179688 198.578125 157.367188 197.515625 157.53125 C 196.453125 157.691406 195.386719 157.828125 194.316406 157.941406 C 193.246094 158.050781 192.175781 158.136719 191.101562 158.195312 C 190.027344 158.253906 188.953125 158.285156 187.878906 158.292969 C 186.804688 158.296875 185.730469 158.277344 184.65625 158.234375 C 183.582031 158.1875 182.507812 158.113281 181.4375 158.015625 C 180.367188 157.917969 179.300781 157.792969 178.234375 157.644531 C 177.171875 157.492188 176.109375 157.316406 175.054688 157.117188 C 173.996094 156.914062 172.949219 156.6875 171.902344 156.433594 C 170.855469 156.179688 169.820312 155.902344 168.789062 155.597656 C 167.757812 155.296875 166.734375 154.96875 165.71875 154.613281 C 164.703125 154.261719 163.695312 153.882812 162.699219 153.480469 C 161.703125 153.078125 160.714844 152.652344 159.738281 152.199219 C 158.761719 151.75 157.796875 151.277344 156.84375 150.777344 C 155.890625 150.28125 154.949219 149.761719 154.023438 149.21875 C 153.09375 148.675781 152.179688 148.109375 151.28125 147.519531 C 150.378906 146.933594 149.496094 146.324219 148.625 145.691406 C 147.753906 145.0625 146.898438 144.410156 146.058594 143.738281 C 145.21875 143.066406 144.398438 142.375 143.59375 141.660156 C 142.789062 140.949219 142 140.214844 141.230469 139.464844 C 140.460938 138.714844 139.710938 137.945312 138.980469 137.15625 C 138.246094 136.371094 137.535156 135.566406 136.839844 134.742188 C 136.148438 133.921875 135.476562 133.082031 134.824219 132.226562 C 134.171875 131.371094 133.539062 130.503906 132.929688 129.617188 C 132.320312 128.730469 131.734375 127.832031 131.167969 126.917969 C 130.601562 126.003906 130.058594 125.074219 129.539062 124.132812 C 129.019531 123.195312 128.519531 122.242188 128.046875 121.277344 C 127.570312 120.3125 127.121094 119.335938 126.695312 118.347656 C 126.269531 117.363281 125.863281 116.363281 125.488281 115.359375 C 125.109375 114.351562 124.753906 113.335938 124.425781 112.3125 C 124.097656 111.289062 123.792969 110.257812 123.515625 109.21875 C 123.433594 108.90625 123.351562 108.59375 123.273438 108.28125 Z M 124.285156 107.921875 " fill-opacity="1" fill-rule="evenodd"/></g><g clip-path="url(#e10ca983e5)"><path fill="#ffffff" d="M 111.804688 48.691406 C 112.125 48.519531 112.472656 48.386719 112.820312 48.257812 C 113.164062 48.128906 113.523438 48.03125 113.878906 47.957031 C 114.230469 47.902344 114.589844 47.855469 114.933594 47.871094 C 115.109375 47.867188 115.273438 47.90625 115.445312 47.914062 C 115.609375 47.949219 115.78125 47.964844 115.941406 48.019531 C 116.257812 48.121094 116.574219 48.226562 116.863281 48.375 C 117.152344 48.519531 117.417969 48.691406 117.667969 48.847656 C 117.898438 49.03125 118.136719 49.175781 118.320312 49.34375 C 118.511719 49.507812 118.695312 49.636719 118.824219 49.761719 C 119.097656 50.003906 119.269531 50.144531 119.269531 50.144531 C 119.269531 50.144531 119.34375 50.082031 119.527344 49.160156 C 119.710938 48.238281 120.019531 46.941406 120.496094 45.4375 C 120.734375 44.6875 121.03125 43.886719 121.363281 43.058594 C 121.691406 42.222656 122.121094 41.386719 122.554688 40.527344 C 123.011719 39.675781 123.546875 38.835938 124.113281 38.011719 C 124.691406 37.1875 125.332031 36.394531 126.039062 35.667969 C 126.386719 35.292969 126.742188 34.925781 127.121094 34.59375 C 127.484375 34.242188 127.878906 33.921875 128.265625 33.605469 C 129.050781 32.980469 129.851562 32.398438 130.675781 31.894531 C 131.507812 31.410156 132.320312 30.945312 133.132812 30.570312 C 133.527344 30.359375 133.9375 30.203125 134.324219 30.035156 C 134.714844 29.875 135.085938 29.6875 135.460938 29.566406 C 136.199219 29.304688 136.878906 29.027344 137.503906 28.847656 C 138.121094 28.65625 138.660156 28.460938 139.117188 28.347656 C 140.019531 28.097656 140.542969 27.929688 140.542969 27.929688 C 140.542969 27.929688 140.003906 27.914062 139.050781 27.925781 C 138.570312 27.921875 138 27.976562 137.332031 28.046875 C 136.667969 28.089844 135.921875 28.226562 135.113281 28.382812 C 134.304688 28.550781 133.429688 28.757812 132.53125 29.085938 C 131.621094 29.386719 130.683594 29.769531 129.753906 30.25 C 128.824219 30.742188 127.871094 31.285156 126.992188 31.957031 C 126.550781 32.296875 126.097656 32.628906 125.691406 33.019531 C 125.265625 33.390625 124.863281 33.785156 124.476562 34.199219 C 123.703125 35.027344 123.015625 35.929688 122.40625 36.851562 C 121.78125 37.769531 121.304688 38.757812 120.863281 39.703125 C 120.433594 40.664062 120.101562 41.621094 119.855469 42.542969 C 119.585938 43.457031 119.417969 44.34375 119.296875 45.164062 C 119.050781 46.796875 119.050781 48.175781 119.105469 49.128906 C 119.125 49.558594 119.164062 49.800781 119.191406 49.949219 C 119.15625 49.855469 119.113281 49.742188 119.050781 49.59375 C 118.902344 49.246094 118.640625 48.765625 118.226562 48.246094 C 117.800781 47.734375 117.1875 47.179688 116.363281 46.832031 C 115.953125 46.664062 115.5 46.523438 115.023438 46.488281 C 114.554688 46.425781 114.078125 46.484375 113.609375 46.554688 C 112.683594 46.742188 111.847656 47.136719 111.164062 47.609375 C 110.8125 47.828125 110.511719 48.097656 110.230469 48.34375 C 109.953125 48.589844 109.707031 48.847656 109.496094 49.09375 C 108.636719 50.066406 108.300781 50.878906 108.300781 50.878906 C 108.300781 50.878906 109.007812 50.375 110.03125 49.710938 C 110.546875 49.382812 111.148438 49.019531 111.804688 48.691406 " fill-opacity="1" fill-rule="nonzero"/></g><g clip-path="url(#d2b76975b6)"><path fill="#ffffff" d="M 127.730469 72.78125 C 127.222656 72.453125 125.492188 72.132812 125.191406 72.039062 L 124.351562 71.808594 C 123.832031 71.652344 123.296875 71.542969 122.792969 71.363281 C 122.488281 71.230469 122.183594 71.097656 121.878906 70.96875 C 121.457031 70.792969 121.042969 70.589844 120.648438 70.355469 C 120.421875 70.226562 120.199219 70.089844 119.96875 69.960938 C 119.707031 69.78125 119.464844 69.578125 119.222656 69.378906 C 118.90625 69.113281 118.605469 68.832031 118.320312 68.53125 C 118.320312 68.527344 118.316406 68.523438 118.3125 68.519531 C 117.972656 68.164062 117.664062 67.773438 117.382812 67.371094 L 117.304688 67.253906 L 117.085938 66.941406 L 116.914062 66.597656 L 116.566406 65.914062 C 116.457031 65.6875 116.386719 65.433594 116.289062 65.199219 C 116.136719 64.84375 116.039062 64.464844 115.9375 64.089844 C 115.871094 63.839844 115.808594 63.585938 115.761719 63.328125 C 115.6875 62.945312 115.609375 62.558594 115.585938 62.160156 C 115.519531 61.636719 115.515625 61.105469 115.496094 60.574219 C 115.488281 60.058594 115.507812 59.5 115.5625 59.039062 C 115.636719 58.761719 115.695312 58.507812 115.746094 58.25 C 115.804688 57.949219 115.847656 57.65625 115.886719 57.355469 C 115.964844 56.761719 115.988281 56.152344 115.976562 55.542969 C 115.972656 55.238281 115.945312 54.9375 115.914062 54.632812 C 115.875 54.324219 115.839844 54.019531 115.765625 53.714844 C 115.707031 53.414062 115.601562 53.097656 115.492188 52.785156 C 115.4375 52.628906 115.378906 52.519531 115.316406 52.382812 L 115.21875 52.160156 L 115.074219 51.929688 C 114.902344 51.617188 114.644531 51.371094 114.390625 51.136719 C 114.109375 50.9375 113.832031 50.75 113.523438 50.640625 C 113.222656 50.511719 112.914062 50.445312 112.609375 50.386719 C 112.304688 50.335938 112.007812 50.304688 111.710938 50.300781 C 110.523438 50.277344 109.375 50.503906 108.300781 50.878906 C 108.863281 50.824219 109.433594 50.832031 109.992188 50.851562 C 110.269531 50.863281 110.542969 50.882812 110.816406 50.917969 C 111.09375 50.949219 111.363281 50.996094 111.625 51.046875 C 111.886719 51.097656 112.144531 51.167969 112.386719 51.257812 C 112.625 51.347656 112.867188 51.445312 113.0625 51.582031 C 113.28125 51.699219 113.441406 51.855469 113.609375 52 C 113.742188 52.183594 113.878906 52.339844 113.949219 52.542969 L 114.015625 52.683594 C 114.011719 52.6875 114.050781 52.804688 114.0625 52.855469 C 114.097656 52.988281 114.15625 53.136719 114.175781 53.253906 C 114.21875 53.480469 114.257812 53.707031 114.289062 53.972656 C 114.324219 54.21875 114.328125 54.476562 114.335938 54.734375 C 114.335938 54.992188 114.332031 55.253906 114.3125 55.511719 C 114.277344 56.03125 114.191406 56.554688 114.089844 57.066406 C 114.039062 57.328125 113.984375 57.582031 113.917969 57.839844 C 113.855469 58.089844 113.777344 58.359375 113.703125 58.566406 L 113.683594 58.621094 L 113.671875 58.695312 C 113.554688 59.351562 113.503906 59.921875 113.472656 60.535156 C 113.441406 61.144531 113.460938 61.746094 113.519531 62.351562 C 113.539062 62.835938 113.625 63.3125 113.707031 63.792969 C 113.75 64.039062 113.804688 64.28125 113.863281 64.523438 C 113.980469 65 114.089844 65.476562 114.28125 65.933594 C 114.390625 66.222656 114.492188 66.515625 114.625 66.796875 L 115.0625 67.625 L 115.285156 68.035156 L 115.558594 68.417969 L 115.800781 68.753906 C 116.007812 69.035156 116.222656 69.3125 116.460938 69.574219 C 116.554688 69.667969 116.640625 69.765625 116.734375 69.859375 C 117.125 70.261719 117.554688 70.621094 118.003906 70.953125 C 118.167969 71.074219 118.332031 71.195312 118.5 71.308594 C 118.789062 71.507812 119.097656 71.675781 119.40625 71.832031 C 119.535156 71.902344 119.664062 71.96875 119.796875 72.035156 C 120.25 72.269531 120.726562 72.46875 121.210938 72.621094 C 121.441406 72.691406 121.664062 72.761719 121.890625 72.832031 C 122.171875 72.921875 122.453125 73.003906 122.738281 73.0625 C 123.179688 73.144531 123.625 73.203125 124.0625 73.289062 L 124.503906 73.359375 L 124.886719 73.414062 C 125.136719 73.453125 125.402344 73.503906 125.660156 73.570312 C 126.175781 73.703125 126.6875 73.863281 127.171875 74.082031 C 132.367188 76.609375 132.511719 81.8125 132.632812 82.375 C 132.652344 81.8125 133.363281 75.757812 127.730469 72.78125 " fill-opacity="1" fill-rule="nonzero"/></g><path fill="#ffffff" d="M 164.300781 41.980469 C 164.03125 41.664062 163.609375 41.203125 163.003906 40.695312 C 161.808594 39.671875 159.859375 38.386719 157.214844 37.589844 C 154.585938 36.75 151.300781 36.457031 147.886719 36.886719 C 147.457031 36.9375 147.023438 37.011719 146.582031 37.078125 C 146.546875 37.082031 146.507812 37.089844 146.472656 37.09375 C 145.21875 37.398438 143.972656 37.699219 142.726562 38.003906 C 142.71875 38.003906 142.710938 38.007812 142.703125 38.007812 C 140.976562 38.570312 139.210938 39.316406 137.667969 40.515625 C 136.121094 41.699219 134.882812 43.351562 134.179688 45.089844 C 133.460938 46.824219 133.085938 48.527344 132.632812 50.085938 C 132.199219 51.648438 131.363281 52.960938 130.578125 54.167969 C 129.777344 55.386719 129.082031 56.507812 128.089844 57.296875 C 127.101562 58.097656 126.042969 58.644531 125.046875 58.953125 C 124.058594 59.285156 123.132812 59.382812 122.371094 59.378906 C 121.609375 59.386719 119.273438 58.65625 119.273438 58.65625 C 119.273438 58.65625 121.21875 60.34375 122.007812 60.445312 C 122.792969 60.535156 127.148438 62.867188 132.175781 55.914062 C 133.570312 53.898438 133.71875 52.230469 134.300781 50.632812 C 134.886719 49.027344 135.308594 47.371094 136.015625 45.902344 C 136.703125 44.4375 137.660156 43.160156 138.953125 42.199219 C 140.25 41.246094 141.773438 40.53125 143.355469 40 C 143.753906 39.867188 144.152344 39.753906 144.554688 39.628906 C 144.824219 39.558594 145.09375 39.488281 145.359375 39.417969 C 146.25 39.222656 147.128906 39.03125 148.019531 38.835938 C 148.066406 38.828125 148.113281 38.816406 148.164062 38.808594 C 149.75 38.546875 151.300781 38.429688 152.773438 38.425781 C 154.242188 38.429688 155.632812 38.59375 156.894531 38.835938 C 159.429688 39.339844 161.425781 40.269531 162.738281 41.0625 C 164.054688 41.855469 164.699219 42.488281 164.699219 42.488281 C 164.699219 42.488281 164.574219 42.304688 164.300781 41.980469 " fill-opacity="1" fill-rule="nonzero"/><path fill="#ffffff" d="M 138.496094 69.53125 C 138.191406 69.613281 137.835938 69.644531 137.460938 69.722656 C 137.277344 69.757812 137.082031 69.792969 136.882812 69.832031 C 136.679688 69.851562 136.46875 69.867188 136.257812 69.886719 C 136.042969 69.90625 135.824219 69.925781 135.605469 69.949219 C 135.382812 69.9375 135.15625 69.941406 134.925781 69.9375 C 134.46875 69.96875 134.007812 69.863281 133.539062 69.820312 C 133.300781 69.8125 133.082031 69.710938 132.851562 69.664062 C 132.621094 69.605469 132.386719 69.570312 132.167969 69.46875 L 131.507812 69.214844 C 131.296875 69.105469 131.089844 68.996094 130.882812 68.890625 C 130.667969 68.792969 130.484375 68.644531 130.289062 68.523438 C 130.089844 68.402344 129.898438 68.273438 129.730469 68.125 C 129.375 67.839844 129.054688 67.539062 128.753906 67.238281 C 128.601562 67.09375 128.484375 66.921875 128.347656 66.773438 C 128.207031 66.628906 128.085938 66.476562 127.980469 66.320312 C 127.75 66.019531 127.558594 65.734375 127.398438 65.472656 C 127.226562 65.207031 127.128906 64.96875 127.007812 64.769531 C 126.820312 64.347656 126.71875 64.101562 126.71875 64.101562 C 126.71875 64.101562 126.71875 64.167969 126.71875 64.289062 C 126.722656 64.414062 126.699219 64.597656 126.730469 64.832031 C 126.777344 65.054688 126.789062 65.371094 126.894531 65.679688 C 126.941406 65.839844 126.992188 66.011719 127.042969 66.1875 C 127.105469 66.371094 127.195312 66.546875 127.273438 66.734375 C 127.429688 67.121094 127.664062 67.5 127.925781 67.902344 C 128.066406 68.097656 128.214844 68.296875 128.367188 68.492188 C 128.515625 68.699219 128.714844 68.867188 128.894531 69.058594 C 129.074219 69.253906 129.28125 69.421875 129.5 69.589844 C 129.714844 69.757812 129.917969 69.953125 130.167969 70.078125 C 130.410156 70.214844 130.65625 70.355469 130.90625 70.5 L 131.699219 70.816406 C 131.960938 70.933594 132.242188 70.976562 132.519531 71.042969 C 132.800781 71.101562 133.070312 71.191406 133.351562 71.195312 C 133.90625 71.238281 134.453125 71.269531 134.972656 71.199219 C 135.234375 71.171875 135.492188 71.160156 135.738281 71.121094 C 135.980469 71.058594 136.214844 70.996094 136.441406 70.9375 C 136.671875 70.878906 136.890625 70.820312 137.109375 70.761719 C 137.3125 70.675781 137.503906 70.589844 137.695312 70.511719 C 138.0625 70.347656 138.414062 70.210938 138.691406 70.042969 C 138.976562 69.875 139.214844 69.71875 139.40625 69.589844 C 139.796875 69.332031 140.007812 69.175781 140.007812 69.175781 C 140.007812 69.175781 139.738281 69.226562 139.292969 69.332031 C 139.070312 69.382812 138.796875 69.445312 138.496094 69.53125 " fill-opacity="1" fill-rule="nonzero"/><path fill="#ffffff" d="M 138.902344 32.417969 C 139.140625 32.421875 139.347656 32.425781 139.519531 32.425781 C 139.867188 32.429688 140.070312 32.421875 140.070312 32.421875 C 140.070312 32.421875 139.875 32.367188 139.539062 32.289062 C 139.367188 32.25 139.160156 32.203125 138.921875 32.152344 C 138.683594 32.085938 138.40625 32.066406 138.109375 32.039062 C 137.808594 32.019531 137.484375 31.953125 137.132812 31.980469 C 136.789062 31.992188 136.421875 31.988281 136.042969 32.027344 C 135.667969 32.089844 135.273438 32.125 134.882812 32.21875 C 134.5 32.332031 134.097656 32.40625 133.714844 32.558594 C 133.339844 32.710938 132.957031 32.847656 132.601562 33.042969 C 132.238281 33.210938 131.910156 33.425781 131.585938 33.632812 C 131.261719 33.832031 130.984375 34.078125 130.710938 34.289062 C 130.449219 34.519531 130.203125 34.734375 130 34.964844 C 129.574219 35.390625 129.292969 35.8125 129.09375 36.101562 C 128.898438 36.390625 128.816406 36.570312 128.816406 36.570312 C 128.816406 36.570312 128.953125 36.425781 129.199219 36.1875 C 129.445312 35.945312 129.8125 35.621094 130.273438 35.261719 C 130.734375 34.90625 131.292969 34.523438 131.917969 34.164062 C 132.230469 33.984375 132.5625 33.816406 132.90625 33.664062 C 133.238281 33.488281 133.601562 33.367188 133.957031 33.230469 C 134.308594 33.085938 134.6875 33.007812 135.046875 32.886719 C 135.417969 32.808594 135.777344 32.730469 136.128906 32.652344 C 136.488281 32.605469 136.835938 32.558594 137.160156 32.511719 C 137.492188 32.460938 137.808594 32.476562 138.097656 32.445312 C 138.390625 32.4375 138.660156 32.402344 138.902344 32.417969 " fill-opacity="1" fill-rule="nonzero"/><path fill="#ffffff" d="M 136.460938 35.972656 C 136.664062 35.929688 136.839844 35.886719 136.984375 35.855469 C 137.28125 35.792969 137.449219 35.742188 137.449219 35.742188 C 137.449219 35.742188 137.277344 35.726562 136.976562 35.714844 C 136.820312 35.714844 136.636719 35.710938 136.425781 35.707031 C 136.210938 35.695312 135.976562 35.734375 135.714844 35.765625 C 135.457031 35.800781 135.164062 35.808594 134.878906 35.902344 C 134.585938 35.980469 134.269531 36.039062 133.960938 36.15625 C 133.65625 36.289062 133.324219 36.382812 133.019531 36.554688 C 132.714844 36.726562 132.390625 36.871094 132.101562 37.082031 C 131.8125 37.28125 131.527344 37.492188 131.261719 37.726562 C 130.988281 37.9375 130.761719 38.203125 130.53125 38.433594 C 130.089844 38.929688 129.726562 39.429688 129.476562 39.890625 C 129.207031 40.34375 129.054688 40.757812 128.945312 41.035156 C 128.84375 41.320312 128.808594 41.492188 128.808594 41.492188 C 128.808594 41.492188 128.898438 41.347656 129.066406 41.101562 C 129.230469 40.847656 129.488281 40.511719 129.8125 40.121094 C 130.128906 39.730469 130.53125 39.304688 130.980469 38.875 C 131.441406 38.460938 131.941406 38.023438 132.5 37.675781 C 132.757812 37.472656 133.058594 37.335938 133.335938 37.164062 C 133.617188 37.007812 133.914062 36.882812 134.191406 36.742188 C 134.472656 36.613281 134.757812 36.523438 135.023438 36.414062 C 135.289062 36.296875 135.558594 36.246094 135.796875 36.164062 C 136.042969 36.105469 136.257812 36.007812 136.460938 35.972656 " fill-opacity="1" fill-rule="nonzero"/><path fill="#ffffff" d="M 134.238281 40.277344 C 134.019531 40.316406 133.773438 40.328125 133.527344 40.414062 C 133.277344 40.488281 133.011719 40.550781 132.746094 40.65625 C 132.492188 40.769531 132.214844 40.871094 131.949219 41.015625 C 131.699219 41.179688 131.417969 41.3125 131.183594 41.5 C 130.941406 41.691406 130.699219 41.871094 130.484375 42.082031 C 130.257812 42.28125 130.070312 42.511719 129.890625 42.730469 C 129.703125 42.941406 129.558594 43.179688 129.414062 43.394531 C 129.28125 43.621094 129.160156 43.828125 129.066406 44.039062 C 128.679688 44.855469 128.628906 45.457031 128.628906 45.457031 C 128.628906 45.457031 128.910156 44.933594 129.417969 44.246094 C 129.675781 43.902344 129.992188 43.519531 130.359375 43.144531 C 130.726562 42.769531 131.148438 42.402344 131.601562 42.078125 C 132.046875 41.742188 132.535156 41.480469 133 41.234375 C 133.238281 41.121094 133.472656 41.015625 133.695312 40.921875 C 133.914062 40.8125 134.136719 40.757812 134.339844 40.675781 C 134.542969 40.605469 134.722656 40.523438 134.894531 40.484375 C 135.066406 40.429688 135.214844 40.386719 135.335938 40.351562 C 135.582031 40.273438 135.726562 40.222656 135.726562 40.222656 C 135.726562 40.222656 135.574219 40.21875 135.320312 40.210938 C 135.058594 40.214844 134.679688 40.191406 134.238281 40.277344 " fill-opacity="1" fill-rule="nonzero"/><g fill="#ffffff" fill-opacity="1"><g transform="translate(157.471338, 86.541595)"><g><path d="M 9.875 -12.171875 L 9.875 -9.859375 L 3.96875 -9.859375 L 3.96875 -7.265625 L 9.203125 -7.265625 L 9.203125 -4.953125 L 3.96875 -4.953125 L 3.96875 -2.3125 L 10.109375 -2.3125 L 10.109375 0 L 1.578125 0 L 1.578125 -12.171875 Z M 9.875 -12.171875 "/></g></g></g><g fill="#ffffff" fill-opacity="1"><g transform="translate(181.728998, 86.541595)"><g><path d="M 9.875 -12.171875 L 9.875 -9.859375 L 3.96875 -9.859375 L 3.96875 -7.265625 L 9.203125 -7.265625 L 9.203125 -4.953125 L 3.96875 -4.953125 L 3.96875 -2.3125 L 10.109375 -2.3125 L 10.109375 0 L 1.578125 0 L 1.578125 -12.171875 Z M 9.875 -12.171875 "/></g></g></g><g fill="#ffffff" fill-opacity="1"><g transform="translate(205.986659, 86.541595)"><g><path d="M 10.703125 -1.015625 C 10.398438 -0.753906 9.910156 -0.5 9.234375 -0.25 C 8.554688 0 7.820312 0.125 7.03125 0.125 C 5.757812 0.125 4.65625 -0.144531 3.71875 -0.6875 C 2.78125 -1.238281 2.0625 -1.976562 1.5625 -2.90625 C 1.070312 -3.84375 0.828125 -4.867188 0.828125 -5.984375 C 0.828125 -7.210938 1.070312 -8.304688 1.5625 -9.265625 C 2.0625 -10.222656 2.757812 -10.96875 3.65625 -11.5 C 4.550781 -12.039062 5.582031 -12.3125 6.75 -12.3125 C 7.488281 -12.3125 8.171875 -12.210938 8.796875 -12.015625 C 9.429688 -11.816406 9.984375 -11.566406 10.453125 -11.265625 L 9.515625 -9 C 8.640625 -9.664062 7.742188 -10 6.828125 -10 C 6.210938 -10 5.632812 -9.828125 5.09375 -9.484375 C 4.550781 -9.140625 4.117188 -8.671875 3.796875 -8.078125 C 3.484375 -7.492188 3.328125 -6.84375 3.328125 -6.125 C 3.328125 -5.34375 3.472656 -4.65625 3.765625 -4.0625 C 4.066406 -3.46875 4.492188 -3.003906 5.046875 -2.671875 C 5.597656 -2.347656 6.242188 -2.1875 6.984375 -2.1875 C 7.578125 -2.1875 8.109375 -2.28125 8.578125 -2.46875 C 9.054688 -2.664062 9.4375 -2.894531 9.71875 -3.15625 Z M 10.703125 -1.015625 "/></g></g></g><g fill="#ffffff" fill-opacity="1"><g transform="translate(159.904989, 105.537394)"><g><path d="M 5.765625 -7.84375 L 5.765625 -6.625 L 3.734375 -6.625 L 3.734375 0 L 2.484375 0 L 2.484375 -6.625 L 0.515625 -6.625 L 0.515625 -7.84375 Z M 5.765625 -7.84375 "/></g></g></g><g fill="#ffffff" fill-opacity="1"><g transform="translate(170.483646, 105.537394)"><g><path d="M 5.109375 -1.84375 L 2.25 -1.84375 L 1.5 0 L 0.265625 0 L 3.71875 -8.15625 L 3.796875 -8.15625 L 7.265625 0 L 5.828125 0 Z M 4.6875 -2.921875 L 3.703125 -5.390625 L 2.6875 -2.921875 Z M 4.6875 -2.921875 "/></g></g></g><g fill="#ffffff" fill-opacity="1"><g transform="translate(182.310212, 105.537394)"><g><path d="M 8.984375 -8.125 L 8.984375 0 L 7.734375 0 L 7.734375 -4.53125 L 5 -0.640625 L 4.96875 -0.640625 L 2.296875 -4.34375 L 2.296875 0 L 1.078125 0 L 1.078125 -8.125 L 1.09375 -8.125 L 5 -2.578125 L 8.96875 -8.125 Z M 8.984375 -8.125 "/></g></g></g><g fill="#ffffff" fill-opacity="1"><g transform="translate(196.675615, 105.537394)"><g><path d="M 3.296875 -7.84375 C 4.179688 -7.84375 4.875 -7.617188 5.375 -7.171875 C 5.882812 -6.722656 6.140625 -6.101562 6.140625 -5.3125 C 6.140625 -4.863281 6.046875 -4.441406 5.859375 -4.046875 C 5.679688 -3.660156 5.394531 -3.34375 5 -3.09375 C 4.601562 -2.84375 4.09375 -2.71875 3.46875 -2.71875 L 2.34375 -2.71875 L 2.34375 0 L 1.078125 0 L 1.078125 -7.84375 Z M 3.46875 -3.921875 C 3.8125 -3.921875 4.085938 -3.992188 4.296875 -4.140625 C 4.515625 -4.296875 4.664062 -4.476562 4.75 -4.6875 C 4.84375 -4.894531 4.890625 -5.097656 4.890625 -5.296875 C 4.890625 -5.628906 4.78125 -5.929688 4.5625 -6.203125 C 4.351562 -6.484375 4 -6.625 3.5 -6.625 L 2.34375 -6.625 L 2.34375 -3.921875 Z M 3.46875 -3.921875 "/></g></g></g><g fill="#ffffff" fill-opacity="1"><g transform="translate(207.555492, 105.537394)"><g><path d="M 5.109375 -1.84375 L 2.25 -1.84375 L 1.5 0 L 0.265625 0 L 3.71875 -8.15625 L 3.796875 -8.15625 L 7.265625 0 L 5.828125 0 Z M 4.6875 -2.921875 L 3.703125 -5.390625 L 2.6875 -2.921875 Z M 4.6875 -2.921875 "/></g></g></g><g fill="#ffffff" fill-opacity="1"><g transform="translate(138.441207, 123.229012)"><g><path d="M 0.53125 0 L 2.359375 -4.421875 C 1.765625 -4.441406 1.320312 -4.59375 1.03125 -4.875 C 0.738281 -5.15625 0.59375 -5.585938 0.59375 -6.171875 L 0.59375 -6.90625 L 1.46875 -6.90625 L 1.46875 -6.25 C 1.46875 -5.832031 1.546875 -5.550781 1.703125 -5.40625 C 1.867188 -5.257812 2.117188 -5.1875 2.453125 -5.1875 L 3.59375 -5.1875 L 3.015625 -3.734375 C 3.378906 -3.597656 3.707031 -3.382812 4 -3.09375 C 4.300781 -2.8125 4.546875 -2.421875 4.734375 -1.921875 C 4.929688 -1.421875 5.054688 -0.78125 5.109375 0 L 4.234375 0 C 4.203125 -0.582031 4.113281 -1.066406 3.96875 -1.453125 C 3.832031 -1.847656 3.648438 -2.160156 3.421875 -2.390625 C 3.203125 -2.628906 2.957031 -2.816406 2.6875 -2.953125 L 1.515625 0 Z M 6.546875 0.796875 C 6.347656 0.796875 6.175781 0.707031 6.03125 0.53125 C 5.882812 0.351562 5.785156 0.175781 5.734375 0 L 4.390625 0 L 4.390625 -0.703125 L 5.734375 -0.703125 C 5.785156 -0.890625 5.882812 -1.066406 6.03125 -1.234375 C 6.175781 -1.398438 6.347656 -1.484375 6.546875 -1.484375 L 6.78125 -1.484375 L 6.53125 -0.34375 L 6.78125 0.796875 Z M 6.546875 0.796875 "/></g></g></g><g fill="#ffffff" fill-opacity="1"><g transform="translate(149.240735, 123.229012)"><g><path d="M 1.90625 0 L 1.90625 -0.90625 C 1.90625 -1.40625 1.863281 -1.847656 1.78125 -2.234375 C 1.695312 -2.617188 1.539062 -2.992188 1.3125 -3.359375 C 1.175781 -3.554688 1.039062 -3.753906 0.90625 -3.953125 C 0.78125 -4.160156 0.675781 -4.367188 0.59375 -4.578125 C 0.519531 -4.796875 0.484375 -5.035156 0.484375 -5.296875 C 0.484375 -5.867188 0.65625 -6.296875 1 -6.578125 C 1.34375 -6.867188 1.800781 -7.015625 2.375 -7.015625 C 2.976562 -7.015625 3.425781 -6.859375 3.71875 -6.546875 C 4.007812 -6.242188 4.15625 -5.84375 4.15625 -5.34375 C 4.15625 -4.820312 3.976562 -4.394531 3.625 -4.0625 C 3.28125 -3.726562 2.832031 -3.492188 2.28125 -3.359375 C 2.414062 -3.097656 2.515625 -2.859375 2.578125 -2.640625 C 2.648438 -2.421875 2.703125 -2.1875 2.734375 -1.9375 C 2.765625 -1.6875 2.78125 -1.394531 2.78125 -1.0625 L 2.78125 0 Z M 1.953125 -3.953125 C 2.367188 -4.046875 2.695312 -4.207031 2.9375 -4.4375 C 3.175781 -4.664062 3.296875 -4.96875 3.296875 -5.34375 C 3.296875 -5.664062 3.210938 -5.914062 3.046875 -6.09375 C 2.878906 -6.269531 2.640625 -6.359375 2.328125 -6.359375 C 2.023438 -6.359375 1.785156 -6.269531 1.609375 -6.09375 C 1.441406 -5.914062 1.359375 -5.671875 1.359375 -5.359375 C 1.359375 -5.085938 1.410156 -4.835938 1.515625 -4.609375 C 1.628906 -4.378906 1.773438 -4.160156 1.953125 -3.953125 Z M 1.953125 -3.953125 "/></g></g></g><g fill="#ffffff" fill-opacity="1"><g transform="translate(157.659046, 123.229012)"><g><path d="M 0.875 0 L 0.875 -3.5 C 0.875 -4.144531 1.007812 -4.679688 1.28125 -5.109375 C 1.550781 -5.546875 1.976562 -5.8125 2.5625 -5.90625 L 2.5625 -7.359375 L 3.4375 -7.359375 L 3.4375 -5.90625 C 4.03125 -5.832031 4.457031 -5.585938 4.71875 -5.171875 C 4.976562 -4.753906 5.109375 -4.191406 5.109375 -3.484375 L 5.109375 0 L 4.234375 0 L 4.234375 -3.421875 C 4.234375 -3.984375 4.140625 -4.410156 3.953125 -4.703125 C 3.765625 -5.003906 3.453125 -5.15625 3.015625 -5.15625 C 2.523438 -5.15625 2.191406 -5 2.015625 -4.6875 C 1.835938 -4.375 1.75 -3.953125 1.75 -3.421875 L 1.75 0 Z M 6.546875 -1.84375 C 6.347656 -1.84375 6.175781 -1.929688 6.03125 -2.109375 C 5.882812 -2.285156 5.785156 -2.460938 5.734375 -2.640625 L 4.390625 -2.640625 L 4.390625 -3.34375 L 5.734375 -3.34375 C 5.785156 -3.53125 5.882812 -3.707031 6.03125 -3.875 C 6.175781 -4.039062 6.347656 -4.125 6.546875 -4.125 L 6.78125 -4.125 L 6.53125 -2.984375 L 6.78125 -1.84375 Z M 6.546875 -1.84375 "/></g></g></g><g fill="#ffffff" fill-opacity="1"><g transform="translate(168.468256, 123.229012)"><g><path d="M 0.875 0 L 0.875 -3.5 C 0.875 -4.144531 1.003906 -4.675781 1.265625 -5.09375 C 1.535156 -5.519531 1.945312 -5.785156 2.5 -5.890625 L 1.765625 -7.359375 L 2.71875 -7.359375 L 3.421875 -5.90625 C 4.023438 -5.832031 4.457031 -5.585938 4.71875 -5.171875 C 4.976562 -4.753906 5.109375 -4.191406 5.109375 -3.484375 L 5.109375 0 L 4.234375 0 L 4.234375 -3.421875 C 4.234375 -3.984375 4.140625 -4.410156 3.953125 -4.703125 C 3.765625 -5.003906 3.453125 -5.15625 3.015625 -5.15625 C 2.523438 -5.15625 2.191406 -5 2.015625 -4.6875 C 1.835938 -4.375 1.75 -3.953125 1.75 -3.421875 L 1.75 0 Z M 0.875 0 "/></g></g></g><g fill="#ffffff" fill-opacity="1"><g transform="translate(178.328854, 123.229012)"><g/></g></g><g fill="#ffffff" fill-opacity="1"><g transform="translate(185.595282, 123.229012)"><g><path d="M 3.78125 0 L 3.78125 -3.65625 C 3.78125 -4.34375 3.695312 -4.867188 3.53125 -5.234375 C 3.375 -5.609375 3.117188 -5.863281 2.765625 -6 C 2.421875 -6.132812 1.957031 -6.203125 1.375 -6.203125 L 1.1875 -6.203125 C 1.101562 -5.929688 0.984375 -5.734375 0.828125 -5.609375 C 0.671875 -5.484375 0.503906 -5.421875 0.328125 -5.421875 L 0.140625 -5.421875 L 0.46875 -6.921875 L 1.390625 -6.921875 C 1.910156 -6.921875 2.375 -6.878906 2.78125 -6.796875 C 3.1875 -6.710938 3.53125 -6.5625 3.8125 -6.34375 C 4.09375 -6.125 4.300781 -5.816406 4.4375 -5.421875 C 4.582031 -5.035156 4.65625 -4.53125 4.65625 -3.90625 L 4.65625 0 Z M 3.78125 0 L 3.78125 -2.5625 L 5.4375 -2.5625 C 6.394531 -2.5625 6.875 -2.132812 6.875 -1.28125 C 6.875 -0.914062 6.738281 -0.609375 6.46875 -0.359375 C 6.207031 -0.117188 5.773438 0 5.171875 0 Z M 4.65625 -0.640625 L 5.109375 -0.640625 C 5.453125 -0.640625 5.6875 -0.695312 5.8125 -0.8125 C 5.9375 -0.925781 6 -1.082031 6 -1.28125 C 6 -1.488281 5.941406 -1.644531 5.828125 -1.75 C 5.722656 -1.851562 5.539062 -1.90625 5.28125 -1.90625 L 4.65625 -1.90625 Z M 4.65625 -0.640625 "/></g></g></g><g fill="#ffffff" fill-opacity="1"><g transform="translate(196.510968, 123.229012)"><g><path d="M 0.140625 0.796875 L 0.46875 -0.703125 L 1.28125 -0.703125 C 1.625 -0.703125 1.894531 -0.75 2.09375 -0.84375 C 2.289062 -0.9375 2.429688 -1.097656 2.515625 -1.328125 C 2.597656 -1.554688 2.640625 -1.859375 2.640625 -2.234375 L 2.640625 -6.921875 L 3.53125 -6.921875 L 3.53125 -2.171875 C 3.53125 -1.460938 3.359375 -0.921875 3.015625 -0.546875 C 2.671875 -0.179688 2.144531 0 1.4375 0 L 1.1875 0 C 1.132812 0.226562 1.03125 0.414062 0.875 0.5625 C 0.71875 0.71875 0.539062 0.796875 0.34375 0.796875 Z M 0.3125 -3.6875 L 0.640625 -5.1875 L 5.515625 -5.1875 L 5.84375 -3.6875 L 5.65625 -3.6875 C 5.457031 -3.6875 5.28125 -3.753906 5.125 -3.890625 C 4.976562 -4.035156 4.867188 -4.234375 4.796875 -4.484375 L 1.359375 -4.484375 C 1.285156 -4.234375 1.171875 -4.035156 1.015625 -3.890625 C 0.867188 -3.753906 0.703125 -3.6875 0.515625 -3.6875 Z M 0.3125 -3.6875 "/></g></g></g><g fill="#ffffff" fill-opacity="1"><g transform="translate(206.371569, 123.229012)"><g/></g></g><g fill="#ffffff" fill-opacity="1"><g transform="translate(213.637994, 123.229012)"><g><path d="M 2.203125 0 L 2.203125 -4.46875 C 1.691406 -4.488281 1.289062 -4.628906 1 -4.890625 C 0.71875 -5.160156 0.578125 -5.585938 0.578125 -6.171875 L 0.578125 -6.90625 L 1.46875 -6.90625 L 1.46875 -6.25 C 1.46875 -5.832031 1.546875 -5.550781 1.703125 -5.40625 C 1.867188 -5.257812 2.117188 -5.1875 2.453125 -5.1875 L 3.09375 -5.1875 L 3.09375 0 Z M 2.203125 0 "/></g></g></g><g fill="#ffffff" fill-opacity="1"><g transform="translate(221.57232, 123.229012)"><g><path d="M 2.515625 0.09375 C 1.859375 0.09375 1.382812 -0.171875 1.09375 -0.703125 C 0.8125 -1.234375 0.671875 -2.003906 0.671875 -3.015625 C 0.671875 -3.796875 0.765625 -4.476562 0.953125 -5.0625 C 1.148438 -5.644531 1.4375 -6.097656 1.8125 -6.421875 C 2.1875 -6.753906 2.644531 -6.921875 3.1875 -6.921875 L 4.734375 -6.921875 C 5.390625 -6.921875 5.875 -6.660156 6.1875 -6.140625 C 6.5 -5.628906 6.65625 -4.863281 6.65625 -3.84375 C 6.65625 -2.832031 6.492188 -2.054688 6.171875 -1.515625 C 5.859375 -0.972656 5.378906 -0.703125 4.734375 -0.703125 L 4.078125 -0.703125 C 3.878906 -0.460938 3.648438 -0.269531 3.390625 -0.125 C 3.140625 0.0195312 2.847656 0.09375 2.515625 0.09375 Z M 2.546875 -0.609375 C 2.898438 -0.609375 3.1875 -0.769531 3.40625 -1.09375 L 3.40625 -6.234375 L 3.265625 -6.234375 C 2.710938 -6.234375 2.285156 -5.96875 1.984375 -5.4375 C 1.691406 -4.914062 1.546875 -4.117188 1.546875 -3.046875 C 1.546875 -2.191406 1.632812 -1.570312 1.8125 -1.1875 C 1.988281 -0.800781 2.234375 -0.609375 2.546875 -0.609375 Z M 4.28125 -1.40625 L 4.59375 -1.40625 C 4.90625 -1.40625 5.148438 -1.503906 5.328125 -1.703125 C 5.503906 -1.898438 5.625 -2.179688 5.6875 -2.546875 C 5.757812 -2.910156 5.796875 -3.347656 5.796875 -3.859375 C 5.796875 -4.316406 5.757812 -4.722656 5.6875 -5.078125 C 5.613281 -5.441406 5.492188 -5.722656 5.328125 -5.921875 C 5.160156 -6.128906 4.9375 -6.234375 4.65625 -6.234375 L 4.28125 -6.234375 Z M 8.046875 -2.5625 C 7.847656 -2.5625 7.675781 -2.648438 7.53125 -2.828125 C 7.382812 -3.003906 7.285156 -3.179688 7.234375 -3.359375 L 5.890625 -3.359375 L 5.890625 -4.0625 L 7.234375 -4.0625 C 7.285156 -4.25 7.382812 -4.425781 7.53125 -4.59375 C 7.675781 -4.757812 7.847656 -4.84375 8.046875 -4.84375 L 8.28125 -4.84375 L 8.03125 -3.703125 L 8.28125 -2.5625 Z M 8.046875 -2.5625 "/></g></g></g><g fill="#ffffff" fill-opacity="1"><g transform="translate(233.881882, 123.229012)"><g><path d="M 0.523438 -5.824219 L 1.289062 -2.285156 C 1.316406 -2.132812 1.445312 -2.035156 1.597656 -2.035156 C 1.761719 -2.035156 1.890625 -2.132812 1.917969 -2.285156 L 2.664062 -5.824219 C 2.808594 -6.539062 2.421875 -7.023438 1.6875 -7.023438 L 1.484375 -7.023438 C 0.746094 -7.023438 0.359375 -6.539062 0.523438 -5.824219 Z M 1.589844 0.242188 C 2.25 0.242188 2.644531 -0.117188 2.644531 -0.746094 C 2.644531 -1.355469 2.25 -1.726562 1.589844 -1.726562 C 0.941406 -1.726562 0.53125 -1.355469 0.53125 -0.746094 C 0.53125 -0.136719 0.949219 0.242188 1.589844 0.242188 Z M 1.589844 0.242188 "/></g></g></g><g fill="#ffffff" fill-opacity="1"><g transform="translate(240.945106, 123.229012)"><g/></g></g></svg>